<svg width="26" height="26" viewBox="0 0 26 26" fill="none" xmlns="http://www.w3.org/2000/svg">
<circle cx="13" cy="13" r="13" fill="#BDBDBD"/>
<path d="M10.0258 18C9.91908 18 9.82842 17.9627 9.75375 17.888C9.67908 17.8133 9.64175 17.7227 9.64175 17.616V9.328L7.20975 11.2C7.14575 11.2533 7.07108 11.28 6.98575 11.28C6.85775 11.28 6.75108 11.2213 6.66575 11.104L5.99375 10.24C5.94042 10.1547 5.91375 10.0747 5.91375 10C5.91375 9.872 5.97242 9.76533 6.08975 9.68L9.67375 6.912C9.76975 6.83733 9.90308 6.8 10.0738 6.8H11.4818C11.5991 6.8 11.6898 6.83733 11.7538 6.912C11.8284 6.976 11.8658 7.06667 11.8658 7.184V17.616C11.8658 17.7227 11.8284 17.8133 11.7538 17.888C11.6898 17.9627 11.5991 18 11.4818 18H10.0258ZM17.432 18C17.3253 18 17.2347 17.9627 17.16 17.888C17.0853 17.8133 17.048 17.7227 17.048 17.616V9.328L14.616 11.2C14.552 11.2533 14.4773 11.28 14.392 11.28C14.264 11.28 14.1573 11.2213 14.072 11.104L13.4 10.24C13.3467 10.1547 13.32 10.0747 13.32 10C13.32 9.872 13.3787 9.76533 13.496 9.68L17.08 6.912C17.176 6.83733 17.3093 6.8 17.48 6.8H18.888C19.0053 6.8 19.096 6.83733 19.16 6.912C19.2347 6.976 19.272 7.06667 19.272 7.184V17.616C19.272 17.7227 19.2347 17.8133 19.16 17.888C19.096 17.9627 19.0053 18 18.888 18H17.432Z" fill="white"/>
</svg>
