<svg width="26" height="26" viewBox="0 0 26 26" fill="none" xmlns="http://www.w3.org/2000/svg">
<circle cx="13" cy="13" r="13" fill="#BDBDBD"/>
<path d="M8.77575 18C8.66908 18 8.57842 17.9627 8.50375 17.888C8.42908 17.8133 8.39175 17.7227 8.39175 17.616V9.328L5.95975 11.2C5.89575 11.2533 5.82108 11.28 5.73575 11.28C5.60775 11.28 5.50108 11.2213 5.41575 11.104L4.74375 10.24C4.69042 10.1547 4.66375 10.0747 4.66375 10C4.66375 9.872 4.72242 9.76533 4.83975 9.68L8.42375 6.912C8.51975 6.83733 8.65308 6.8 8.82375 6.8H10.2318C10.3491 6.8 10.4398 6.83733 10.5038 6.912C10.5784 6.976 10.6158 7.06667 10.6158 7.184V17.616C10.6158 17.7227 10.5784 17.8133 10.5038 17.888C10.4398 17.9627 10.3491 18 10.2318 18H8.77575ZM12.854 18C12.7473 18 12.6567 17.9627 12.582 17.888C12.5073 17.8133 12.47 17.7227 12.47 17.616V16.8C12.47 16.512 12.6033 16.2613 12.87 16.048L15.398 13.536C16.4967 12.672 17.2593 12 17.686 11.52C18.1233 11.0293 18.342 10.5493 18.342 10.08C18.342 9.57867 18.2033 9.184 17.926 8.896C17.6593 8.608 17.254 8.464 16.71 8.464C16.1767 8.464 15.7553 8.624 15.446 8.944C15.1367 9.25333 14.9447 9.65867 14.87 10.16C14.838 10.288 14.7793 10.384 14.694 10.448C14.6087 10.5013 14.5127 10.528 14.406 10.528H12.982C12.886 10.528 12.806 10.496 12.742 10.432C12.678 10.368 12.646 10.2933 12.646 10.208C12.6673 9.57867 12.838 8.992 13.158 8.448C13.478 7.89333 13.942 7.45067 14.55 7.12C15.158 6.77867 15.8727 6.608 16.694 6.608C17.5473 6.608 18.2673 6.75733 18.854 7.056C19.4513 7.344 19.8993 7.744 20.198 8.256C20.4967 8.768 20.646 9.34933 20.646 10C20.646 10.7147 20.4433 11.36 20.038 11.936C19.6433 12.512 19.0353 13.1307 18.214 13.792L15.942 16.096H20.502C20.6193 16.096 20.71 16.1333 20.774 16.208C20.8487 16.272 20.886 16.3627 20.886 16.48V17.616C20.886 17.7227 20.8487 17.8133 20.774 17.888C20.71 17.9627 20.6193 18 20.502 18H12.854Z" fill="white"/>
</svg>
