<svg width="26" height="26" viewBox="0 0 26 26" fill="none" xmlns="http://www.w3.org/2000/svg">
<circle cx="13" cy="13" r="13" fill="#BDBDBD"/>
<path d="M8.68981 18C8.58315 18 8.49248 17.9627 8.41781 17.888C8.34315 17.8133 8.30581 17.7227 8.30581 17.616V9.328L5.87381 11.2C5.80981 11.2533 5.73515 11.28 5.64981 11.28C5.52181 11.28 5.41515 11.2213 5.32981 11.104L4.65781 10.24C4.60448 10.1547 4.57781 10.0747 4.57781 10C4.57781 9.872 4.63648 9.76533 4.75381 9.68L8.33781 6.912C8.43381 6.83733 8.56715 6.8 8.73781 6.8H10.1458C10.2631 6.8 10.3538 6.83733 10.4178 6.912C10.4925 6.976 10.5298 7.06667 10.5298 7.184V17.616C10.5298 17.7227 10.4925 17.8133 10.4178 17.888C10.3538 17.9627 10.2631 18 10.1458 18H8.68981ZM16.6401 18.16C15.7014 18.16 14.9014 18.0107 14.2401 17.712C13.5894 17.4133 13.0987 17.04 12.7681 16.592C12.4481 16.1333 12.2774 15.664 12.2561 15.184C12.2561 15.088 12.2881 15.0133 12.3521 14.96C12.4267 14.896 12.5121 14.864 12.6081 14.864H14.0481C14.2827 14.864 14.4374 14.9707 14.5121 15.184C14.7467 15.952 15.4614 16.336 16.6561 16.336C17.3067 16.336 17.8187 16.1867 18.1921 15.888C18.5654 15.5787 18.7521 15.1413 18.7521 14.576C18.7521 13.5093 18.0854 12.976 16.7521 12.976H15.1041C14.9867 12.976 14.8907 12.9387 14.8161 12.864C14.7414 12.7893 14.7041 12.6987 14.7041 12.592V11.92C14.7041 11.7493 14.7787 11.5893 14.9281 11.44L17.7921 8.64H13.2161C13.1094 8.64 13.0187 8.60267 12.9441 8.528C12.8694 8.45333 12.8321 8.36267 12.8321 8.256V7.2C12.8321 7.08267 12.8641 6.98667 12.9281 6.912C13.0027 6.83733 13.0987 6.8 13.2161 6.8H20.0801C20.1974 6.8 20.2934 6.83733 20.3681 6.912C20.4427 6.98667 20.4801 7.08267 20.4801 7.2V8.16C20.4801 8.32 20.4107 8.46933 20.2721 8.608L17.5041 11.456L17.6961 11.472C18.7201 11.5573 19.5307 11.8667 20.1281 12.4C20.7361 12.9333 21.0401 13.696 21.0401 14.688C21.0401 15.392 20.8481 16.0053 20.4641 16.528C20.0907 17.0507 19.5681 17.456 18.8961 17.744C18.2347 18.0213 17.4827 18.16 16.6401 18.16Z" fill="white"/>
</svg>
