<svg width="26" height="26" viewBox="0 0 26 26" fill="none" xmlns="http://www.w3.org/2000/svg">
<circle cx="13" cy="13" r="13" fill="#BDBDBD"/>
<path d="M9.15088 18C9.04421 18 8.95354 17.9627 8.87888 17.888C8.80421 17.8133 8.76688 17.7227 8.76688 17.616V16.8C8.76688 16.512 8.90021 16.2613 9.16688 16.048L11.6949 13.536C12.7935 12.672 13.5562 12 13.9829 11.52C14.4202 11.0293 14.6389 10.5493 14.6389 10.08C14.6389 9.57867 14.5002 9.184 14.2229 8.896C13.9562 8.608 13.5509 8.464 13.0069 8.464C12.4735 8.464 12.0522 8.624 11.7429 8.944C11.4335 9.25333 11.2415 9.65867 11.1669 10.16C11.1349 10.288 11.0762 10.384 10.9909 10.448C10.9055 10.5013 10.8095 10.528 10.7029 10.528H9.27888C9.18288 10.528 9.10288 10.496 9.03888 10.432C8.97488 10.368 8.94288 10.2933 8.94288 10.208C8.96421 9.57867 9.13488 8.992 9.45488 8.448C9.77488 7.89333 10.2389 7.45067 10.8469 7.12C11.4549 6.77867 12.1695 6.608 12.9909 6.608C13.8442 6.608 14.5642 6.75733 15.1509 7.056C15.7482 7.344 16.1962 7.744 16.4949 8.256C16.7935 8.768 16.9429 9.34933 16.9429 10C16.9429 10.7147 16.7402 11.36 16.3349 11.936C15.9402 12.512 15.3322 13.1307 14.5109 13.792L12.2389 16.096H16.7989C16.9162 16.096 17.0069 16.1333 17.0709 16.208C17.1455 16.272 17.1829 16.3627 17.1829 16.48V17.616C17.1829 17.7227 17.1455 17.8133 17.0709 17.888C17.0069 17.9627 16.9162 18 16.7989 18H9.15088Z" fill="white"/>
</svg>
