<svg width="26" height="26" viewBox="0 0 26 26" fill="none" xmlns="http://www.w3.org/2000/svg">
<circle cx="13" cy="13" r="13" fill="#BDBDBD"/>
<path d="M12.9369 18.16C11.9983 18.16 11.1983 18.0107 10.5369 17.712C9.88627 17.4133 9.3956 17.04 9.06494 16.592C8.74494 16.1333 8.57427 15.664 8.55294 15.184C8.55294 15.088 8.58494 15.0133 8.64894 14.96C8.7236 14.896 8.80894 14.864 8.90494 14.864H10.3449C10.5796 14.864 10.7343 14.9707 10.8089 15.184C11.0436 15.952 11.7583 16.336 12.9529 16.336C13.6036 16.336 14.1156 16.1867 14.4889 15.888C14.8623 15.5787 15.0489 15.1413 15.0489 14.576C15.0489 13.5093 14.3823 12.976 13.0489 12.976H11.4009C11.2836 12.976 11.1876 12.9387 11.1129 12.864C11.0383 12.7893 11.0009 12.6987 11.0009 12.592V11.92C11.0009 11.7493 11.0756 11.5893 11.2249 11.44L14.0889 8.64H9.51294C9.40627 8.64 9.3156 8.60267 9.24094 8.528C9.16627 8.45333 9.12894 8.36267 9.12894 8.256V7.2C9.12894 7.08267 9.16094 6.98667 9.22494 6.912C9.2996 6.83733 9.3956 6.8 9.51294 6.8H16.3769C16.4943 6.8 16.5903 6.83733 16.6649 6.912C16.7396 6.98667 16.7769 7.08267 16.7769 7.2V8.16C16.7769 8.32 16.7076 8.46933 16.5689 8.608L13.8009 11.456L13.9929 11.472C15.0169 11.5573 15.8276 11.8667 16.4249 12.4C17.0329 12.9333 17.3369 13.696 17.3369 14.688C17.3369 15.392 17.1449 16.0053 16.7609 16.528C16.3876 17.0507 15.8649 17.456 15.1929 17.744C14.5316 18.0213 13.7796 18.16 12.9369 18.16Z" fill="white"/>
</svg>
