<svg width="26" height="26" viewBox="0 0 26 26" fill="none" xmlns="http://www.w3.org/2000/svg">
<circle cx="13" cy="13" r="13" fill="#BDBDBD"/>
<path d="M13.0884 18.16C12.1924 18.16 11.4084 17.9893 10.7364 17.648C10.0644 17.3067 9.54704 16.8427 9.18438 16.256C8.82171 15.6587 8.64038 14.9867 8.64038 14.24C8.64038 13.2907 9.05104 12.256 9.87238 11.136L12.8004 7.12C12.8644 7.024 12.9337 6.94933 13.0084 6.896C13.0937 6.832 13.2057 6.8 13.3444 6.8H14.8324C14.9284 6.8 15.0084 6.83733 15.0724 6.912C15.1364 6.976 15.1684 7.056 15.1684 7.152C15.1684 7.20533 15.1417 7.27467 15.0884 7.36L12.8484 10.464C13.0617 10.4107 13.291 10.384 13.5364 10.384C14.251 10.4053 14.907 10.5867 15.5044 10.928C16.1124 11.2587 16.5924 11.712 16.9444 12.288C17.307 12.864 17.4884 13.504 17.4884 14.208C17.4884 14.9227 17.307 15.584 16.9444 16.192C16.5924 16.7893 16.0804 17.2693 15.4084 17.632C14.747 17.984 13.9737 18.16 13.0884 18.16ZM13.0724 16.32C13.6804 16.32 14.1924 16.1387 14.6084 15.776C15.0244 15.4027 15.2324 14.8853 15.2324 14.224C15.2324 13.5733 15.0244 13.0667 14.6084 12.704C14.1924 12.3307 13.6804 12.144 13.0724 12.144C12.4644 12.144 11.9524 12.3307 11.5364 12.704C11.1204 13.0667 10.9124 13.5733 10.9124 14.224C10.9124 14.8853 11.1204 15.4027 11.5364 15.776C11.9524 16.1387 12.4644 16.32 13.0724 16.32Z" fill="white"/>
</svg>
