<svg width="26" height="26" viewBox="0 0 26 26" fill="none" xmlns="http://www.w3.org/2000/svg">
<circle cx="13" cy="13" r="13" fill="#BDBDBD"/>
<path d="M12.998 18.16C12.07 18.16 11.27 18.016 10.598 17.728C9.93667 17.4293 9.43 17.0187 9.078 16.496C8.726 15.9733 8.55 15.376 8.55 14.704C8.55 14.1067 8.69933 13.5787 8.998 13.12C9.29667 12.6507 9.69667 12.2933 10.198 12.048C9.80333 11.8027 9.494 11.488 9.27 11.104C9.05667 10.7093 8.95 10.2613 8.95 9.76C8.95 8.82133 9.302 8.06933 10.006 7.504C10.7207 6.928 11.718 6.64 12.998 6.64C14.2673 6.64 15.254 6.92267 15.958 7.488C16.662 8.05333 17.014 8.80533 17.014 9.744C17.014 10.2453 16.9073 10.6933 16.694 11.088C16.4913 11.472 16.1927 11.792 15.798 12.048C16.31 12.2933 16.71 12.6507 16.998 13.12C17.2967 13.5787 17.446 14.112 17.446 14.72C17.446 15.392 17.27 15.9893 16.918 16.512C16.566 17.0347 16.054 17.44 15.382 17.728C14.71 18.016 13.9153 18.16 12.998 18.16ZM12.998 11.36C13.5527 11.3493 14.0113 11.2053 14.374 10.928C14.7473 10.6507 14.934 10.288 14.934 9.84C14.934 9.37067 14.7527 8.99733 14.39 8.72C14.0273 8.44267 13.5633 8.304 12.998 8.304C12.4327 8.304 11.9687 8.44267 11.606 8.72C11.2433 8.99733 11.062 9.37067 11.062 9.84C11.062 10.2987 11.2433 10.6667 11.606 10.944C11.9687 11.2213 12.4327 11.36 12.998 11.36ZM12.998 16.496C13.6273 16.496 14.1553 16.336 14.582 16.016C15.0087 15.6853 15.222 15.2533 15.222 14.72C15.222 14.1867 15.0087 13.76 14.582 13.44C14.1553 13.1093 13.6273 12.944 12.998 12.944C12.358 12.944 11.8247 13.104 11.398 13.424C10.982 13.744 10.774 14.176 10.774 14.72C10.774 15.264 10.982 15.696 11.398 16.016C11.8247 16.336 12.358 16.496 12.998 16.496Z" fill="white"/>
</svg>
