<svg width="26" height="26" viewBox="0 0 26 26" fill="none" xmlns="http://www.w3.org/2000/svg">
<circle cx="13" cy="13" r="12.5" stroke="#787878"/>
<path d="M13.7289 18C13.6222 18 13.5315 17.9627 13.4569 17.888C13.3822 17.8133 13.3449 17.7227 13.3449 17.616V9.328L10.9129 11.2C10.8489 11.2533 10.7742 11.28 10.6889 11.28C10.5609 11.28 10.4542 11.2213 10.3689 11.104L9.69688 10.24C9.64354 10.1547 9.61688 10.0747 9.61688 10C9.61688 9.872 9.67554 9.76533 9.79288 9.68L13.3769 6.912C13.4729 6.83733 13.6062 6.8 13.7769 6.8H15.1849C15.3022 6.8 15.3929 6.83733 15.4569 6.912C15.5315 6.976 15.5689 7.06667 15.5689 7.184V17.616C15.5689 17.7227 15.5315 17.8133 15.4569 17.888C15.3929 17.9627 15.3022 18 15.1849 18H13.7289Z" fill="#787878"/>
</svg>
