<svg width="26" height="26" viewBox="0 0 26 26" fill="none" xmlns="http://www.w3.org/2000/svg">
<circle cx="13" cy="13" r="12.5" stroke="#787878"/>
<path d="M8.47106 18C8.3644 18 8.27373 17.9627 8.19906 17.888C8.1244 17.8133 8.08706 17.7227 8.08706 17.616V9.328L5.65506 11.2C5.59106 11.2533 5.5164 11.28 5.43106 11.28C5.30306 11.28 5.1964 11.2213 5.11106 11.104L4.43906 10.24C4.38573 10.1547 4.35906 10.0747 4.35906 10C4.35906 9.872 4.41773 9.76533 4.53506 9.68L8.11906 6.912C8.21506 6.83733 8.3484 6.8 8.51906 6.8H9.92706C10.0444 6.8 10.1351 6.83733 10.1991 6.912C10.2737 6.976 10.3111 7.06667 10.3111 7.184V17.616C10.3111 17.7227 10.2737 17.8133 10.1991 17.888C10.1351 17.9627 10.0444 18 9.92706 18H8.47106ZM16.6933 18.16C15.2746 18.16 14.2133 17.7653 13.5093 16.976C12.816 16.1867 12.4373 15.152 12.3733 13.872C12.3626 13.584 12.3573 13.0933 12.3573 12.4C12.3573 11.696 12.3626 11.1947 12.3733 10.896C12.4266 9.63733 12.8106 8.61333 13.5253 7.824C14.24 7.03467 15.296 6.64 16.6933 6.64C18.1013 6.64 19.1626 7.03467 19.8773 7.824C20.592 8.61333 20.9706 9.63733 21.0133 10.896C21.0346 11.1947 21.0453 11.696 21.0453 12.4C21.0453 13.0933 21.0346 13.584 21.0133 13.872C20.96 15.152 20.5813 16.1867 19.8773 16.976C19.184 17.7653 18.1226 18.16 16.6933 18.16ZM16.6933 16.32C17.3653 16.32 17.8666 16.1013 18.1973 15.664C18.528 15.216 18.704 14.592 18.7253 13.792C18.7466 13.1733 18.7573 12.704 18.7573 12.384C18.7573 12.032 18.7466 11.568 18.7253 10.992C18.704 10.2027 18.528 9.584 18.1973 9.136C17.8666 8.688 17.3653 8.464 16.6933 8.464C16.032 8.464 15.5306 8.688 15.1893 9.136C14.8586 9.584 14.6826 10.2027 14.6613 10.992C14.6506 11.28 14.6453 11.744 14.6453 12.384C14.6453 13.0133 14.6506 13.4827 14.6613 13.792C14.6826 14.592 14.8586 15.216 15.1893 15.664C15.5306 16.1013 16.032 16.32 16.6933 16.32Z" fill="#787878"/>
</svg>
