<svg width="26" height="26" viewBox="0 0 26 26" fill="none" xmlns="http://www.w3.org/2000/svg">
<circle cx="13" cy="13" r="12.5" stroke="#787878"/>
<path d="M8.51013 18C8.40346 18 8.31279 17.9627 8.23813 17.888C8.16346 17.8133 8.12613 17.7227 8.12613 17.616V9.328L5.69413 11.2C5.63013 11.2533 5.55546 11.28 5.47013 11.28C5.34213 11.28 5.23546 11.2213 5.15013 11.104L4.47813 10.24C4.42479 10.1547 4.39813 10.0747 4.39813 10C4.39813 9.872 4.45679 9.76533 4.57413 9.68L8.15813 6.912C8.25413 6.83733 8.38746 6.8 8.55813 6.8H9.96613C10.0835 6.8 10.1741 6.83733 10.2381 6.912C10.3128 6.976 10.3501 7.06667 10.3501 7.184V17.616C10.3501 17.7227 10.3128 17.8133 10.2381 17.888C10.1741 17.9627 10.0835 18 9.96613 18H8.51013ZM17.8044 18C17.6977 18 17.607 17.9627 17.5324 17.888C17.4577 17.8133 17.4204 17.7227 17.4204 17.616V15.568H12.3484C12.2417 15.568 12.151 15.5307 12.0764 15.456C12.0017 15.3813 11.9644 15.2907 11.9644 15.184V14.096C11.9644 13.9253 12.023 13.7653 12.1404 13.616L16.8604 7.072C16.9137 6.98667 16.9937 6.92267 17.1004 6.88C17.207 6.82667 17.3244 6.8 17.4524 6.8H19.1964C19.3137 6.8 19.4044 6.83733 19.4684 6.912C19.543 6.976 19.5804 7.06667 19.5804 7.184V13.68H21.0044C21.1217 13.68 21.2177 13.7173 21.2924 13.792C21.367 13.856 21.4044 13.9467 21.4044 14.064V15.184C21.4044 15.2907 21.367 15.3813 21.2924 15.456C21.2177 15.5307 21.127 15.568 21.0204 15.568H19.5804V17.616C19.5804 17.7227 19.543 17.8133 19.4684 17.888C19.4044 17.9627 19.3137 18 19.1964 18H17.8044ZM17.4684 13.744V9.12L14.1884 13.744H17.4684Z" fill="#787878"/>
</svg>
