<svg width="26" height="26" viewBox="0 0 26 26" fill="none" xmlns="http://www.w3.org/2000/svg">
<circle cx="13" cy="13" r="12.5" stroke="#787878"/>
<path d="M14.1013 18C13.9946 18 13.9039 17.9627 13.8293 17.888C13.7546 17.8133 13.7173 17.7227 13.7173 17.616V15.568H8.64525C8.53858 15.568 8.44792 15.5307 8.37325 15.456C8.29858 15.3813 8.26125 15.2907 8.26125 15.184V14.096C8.26125 13.9253 8.31992 13.7653 8.43725 13.616L13.1573 7.072C13.2106 6.98667 13.2906 6.92267 13.3973 6.88C13.5039 6.82667 13.6213 6.8 13.7493 6.8H15.4933C15.6106 6.8 15.7013 6.83733 15.7653 6.912C15.8399 6.976 15.8773 7.06667 15.8773 7.184V13.68H17.3013C17.4186 13.68 17.5146 13.7173 17.5893 13.792C17.6639 13.856 17.7013 13.9467 17.7013 14.064V15.184C17.7013 15.2907 17.6639 15.3813 17.5893 15.456C17.5146 15.5307 17.4239 15.568 17.3173 15.568H15.8773V17.616C15.8773 17.7227 15.8399 17.8133 15.7653 17.888C15.7013 17.9627 15.6106 18 15.4933 18H14.1013ZM13.7653 13.744V9.12L10.4853 13.744H13.7653Z" fill="#787878"/>
</svg>
