<svg width="26" height="26" viewBox="0 0 26 26" fill="none" xmlns="http://www.w3.org/2000/svg">
<circle cx="13" cy="13" r="12.5" stroke="#787878"/>
<path d="M12.9351 18.176C12.0497 18.176 11.2871 18.0267 10.6471 17.728C10.0177 17.4293 9.5324 17.0347 9.19106 16.544C8.8604 16.0533 8.6844 15.5253 8.66306 14.96V14.928C8.66306 14.8427 8.69506 14.7733 8.75906 14.72C8.82306 14.6667 8.90306 14.64 8.99906 14.64H10.4871C10.7324 14.64 10.8924 14.7467 10.9671 14.96C11.1164 15.4293 11.3617 15.776 11.7031 16C12.0551 16.224 12.4657 16.336 12.9351 16.336C13.5324 16.336 14.0284 16.1547 14.4231 15.792C14.8284 15.4293 15.0311 14.9227 15.0311 14.272C15.0311 13.696 14.8284 13.2267 14.4231 12.864C14.0284 12.5013 13.5324 12.32 12.9351 12.32C12.6151 12.32 12.3537 12.3627 12.1511 12.448C11.9484 12.5333 11.7511 12.6507 11.5591 12.8C11.4311 12.896 11.3297 12.9653 11.2551 13.008C11.1911 13.04 11.1111 13.056 11.0151 13.056H9.54306C9.44706 13.056 9.36173 13.024 9.28706 12.96C9.22306 12.8853 9.19106 12.8 9.19106 12.704L9.75106 7.232C9.76173 7.104 9.8044 7.00267 9.87906 6.928C9.9644 6.84267 10.0711 6.8 10.1991 6.8H16.2151C16.3217 6.8 16.4124 6.83733 16.4871 6.912C16.5617 6.98667 16.5991 7.07733 16.5991 7.184V8.256C16.5991 8.36267 16.5617 8.45333 16.4871 8.528C16.4124 8.60267 16.3217 8.64 16.2151 8.64H11.5911L11.3351 11.248C11.8577 10.8853 12.5564 10.704 13.4311 10.704C14.1244 10.704 14.7644 10.8533 15.3511 11.152C15.9484 11.44 16.4231 11.8613 16.7751 12.416C17.1271 12.96 17.3031 13.5947 17.3031 14.32C17.3031 15.0987 17.1217 15.7813 16.7591 16.368C16.3964 16.944 15.8844 17.392 15.2231 17.712C14.5724 18.0213 13.8097 18.176 12.9351 18.176Z" fill="#787878"/>
</svg>
