<svg width="26" height="26" viewBox="0 0 26 26" fill="none" xmlns="http://www.w3.org/2000/svg">
<circle cx="13" cy="13" r="12.5" stroke="#787878"/>
<path d="M10.9763 18C10.8803 18 10.8003 17.968 10.7363 17.904C10.6723 17.8293 10.6403 17.744 10.6403 17.648C10.6403 17.616 10.6509 17.568 10.6723 17.504L14.5283 8.704H9.50425C9.39758 8.704 9.30692 8.66667 9.23225 8.592C9.15758 8.51733 9.12025 8.42667 9.12025 8.32V7.2C9.12025 7.08267 9.15225 6.98667 9.21625 6.912C9.29092 6.83733 9.38692 6.8 9.50425 6.8H16.5283C16.6456 6.8 16.7363 6.83733 16.8003 6.912C16.8749 6.98667 16.9123 7.08267 16.9123 7.2V8.192C16.9123 8.40533 16.8643 8.63467 16.7683 8.88L12.9443 17.616C12.8269 17.872 12.6563 18 12.4323 18H10.9763Z" fill="#787878"/>
</svg>
