<svg width="26" height="26" viewBox="0 0 26 26" fill="none" xmlns="http://www.w3.org/2000/svg">
<circle cx="13" cy="13" r="12.5" stroke="#787878"/>
<path d="M11.0065 18C10.9105 18 10.8305 17.968 10.7665 17.904C10.7025 17.8293 10.6705 17.744 10.6705 17.648C10.6705 17.5733 10.6918 17.504 10.7345 17.44L13.0865 14.192C12.8518 14.2453 12.6332 14.2667 12.4305 14.256C11.7158 14.2347 11.0652 14.0587 10.4785 13.728C9.89183 13.3973 9.42783 12.9493 9.0865 12.384C8.75583 11.8187 8.5905 11.2 8.5905 10.528C8.5905 9.856 8.75583 9.22667 9.0865 8.64C9.41717 8.04267 9.90783 7.56267 10.5585 7.2C11.2092 6.82667 11.9932 6.64 12.9105 6.64C13.8278 6.64 14.6172 6.816 15.2785 7.168C15.9398 7.50933 16.4358 7.97333 16.7665 8.56C17.1078 9.136 17.2785 9.77067 17.2785 10.464C17.2785 10.8907 17.2092 11.296 17.0705 11.68C16.9318 12.064 16.7718 12.4 16.5905 12.688C16.4198 12.9653 16.1745 13.328 15.8545 13.776L13.0385 17.68C12.9745 17.776 12.8998 17.856 12.8145 17.92C12.7398 17.9733 12.6332 18 12.4945 18H11.0065ZM12.9265 12.56C13.5132 12.56 14.0038 12.3787 14.3985 12.016C14.8038 11.6427 15.0065 11.1467 15.0065 10.528C15.0065 9.90933 14.8038 9.41333 14.3985 9.04C14.0038 8.66667 13.5132 8.48 12.9265 8.48C12.3398 8.48 11.8438 8.66667 11.4385 9.04C11.0438 9.41333 10.8465 9.90933 10.8465 10.528C10.8465 11.1467 11.0438 11.6427 11.4385 12.016C11.8332 12.3787 12.3292 12.56 12.9265 12.56Z" fill="#787878"/>
</svg>
